<mxfile host="www.draw.io" modified="2020-03-03T10:27:06.863Z" agent="Mozilla/5.0 (Macintosh; Intel Mac OS X 10_15_3) AppleWebKit/537.36 (KHTML, like Gecko) Chrome/79.0.3945.130 Safari/537.36" etag="Rsp4SSjnlwAv2TMZorCo" version="12.7.9" type="github">
  <diagram name="Page-1" id="9361dd3d-8414-5efd-6122-117bd74ce7a7">
    <mxGraphModel dx="1426" dy="775" grid="1" gridSize="10" guides="1" tooltips="1" connect="1" arrows="1" fold="1" page="0" pageScale="1.5" pageWidth="826" pageHeight="1169" background="#ffffff" math="0" shadow="0">
      <root>
        <mxCell id="0" />
        <mxCell id="1" parent="0" />
        <mxCell id="5GutXgpYoX0E2_0ryTat-90" value="" style="fillColor=#DEE8FF;strokeColor=none" parent="1" vertex="1">
          <mxGeometry x="40" y="26" width="1570" height="800" as="geometry" />
        </mxCell>
        <mxCell id="5GutXgpYoX0E2_0ryTat-91" value="用户" style="shape=umlActor;verticalLabelPosition=bottom;labelBackgroundColor=#ffffff;verticalAlign=top;html=1;outlineConnect=0;strokeColor=#003366;fillColor=#FF3333;" parent="1" vertex="1">
          <mxGeometry x="120" y="160" width="30" height="60" as="geometry" />
        </mxCell>
        <mxCell id="5GutXgpYoX0E2_0ryTat-92" value="支付应用&#xa;（收银台）" style="shadow=1;fillColor=#A2C4C9;strokeColor=none" parent="1" vertex="1">
          <mxGeometry x="470" y="50" width="105" height="50" as="geometry" />
        </mxCell>
        <mxCell id="5GutXgpYoX0E2_0ryTat-93" value="支付网关" style="shadow=1;fillColor=#A2C4C9;strokeColor=none" parent="1" vertex="1">
          <mxGeometry x="690" y="50" width="105" height="50" as="geometry" />
        </mxCell>
        <mxCell id="5GutXgpYoX0E2_0ryTat-94" value="中台" style="shadow=1;fillColor=#A2C4C9;strokeColor=none" parent="1" vertex="1">
          <mxGeometry x="930" y="50" width="105" height="50" as="geometry" />
        </mxCell>
        <mxCell id="5GutXgpYoX0E2_0ryTat-95" value="第三方支付" style="shadow=1;fillColor=#A2C4C9;strokeColor=none" parent="1" vertex="1">
          <mxGeometry x="1140" y="50" width="105" height="50" as="geometry" />
        </mxCell>
        <mxCell id="5GutXgpYoX0E2_0ryTat-97" value="" style="fillColor=#CC4125;strokeColor=#660000" parent="1" vertex="1">
          <mxGeometry x="130" y="250" width="10" height="510" as="geometry" />
        </mxCell>
        <mxCell id="5GutXgpYoX0E2_0ryTat-98" value="业务端&#xa;（C端）" style="shadow=1;fillColor=#A2C4C9;strokeColor=none" parent="1" vertex="1">
          <mxGeometry x="240" y="50" width="105" height="50" as="geometry" />
        </mxCell>
        <mxCell id="5GutXgpYoX0E2_0ryTat-116" value="" style="fillColor=#80FF00;strokeColor=#660000" parent="1" vertex="1">
          <mxGeometry x="977.5" y="166" width="10" height="84" as="geometry" />
        </mxCell>
        <mxCell id="5GutXgpYoX0E2_0ryTat-114" value="" style="endArrow=classic;html=1;" parent="1" source="5GutXgpYoX0E2_0ryTat-91" edge="1">
          <mxGeometry width="50" height="50" relative="1" as="geometry">
            <mxPoint x="740" y="160" as="sourcePoint" />
            <mxPoint x="280" y="189" as="targetPoint" />
          </mxGeometry>
        </mxCell>
        <mxCell id="5GutXgpYoX0E2_0ryTat-115" value="下单" style="text;html=1;align=center;verticalAlign=middle;resizable=0;points=[];labelBackgroundColor=#ffffff;" parent="5GutXgpYoX0E2_0ryTat-114" vertex="1" connectable="0">
          <mxGeometry x="-0.0114" relative="1" as="geometry">
            <mxPoint as="offset" />
          </mxGeometry>
        </mxCell>
        <mxCell id="5GutXgpYoX0E2_0ryTat-122" value="" style="edgeStyle=elbowEdgeStyle;elbow=vertical;verticalLabelPosition=top;verticalAlign=bottom;exitX=0.159;exitY=0.225;exitDx=0;exitDy=0;exitPerimeter=0;entryX=0.599;entryY=0.225;entryDx=0;entryDy=0;entryPerimeter=0;" parent="1" edge="1">
          <mxGeometry width="100" height="100" as="geometry">
            <mxPoint x="289.6300000000001" y="197" as="sourcePoint" />
            <mxPoint x="980.4299999999998" y="197" as="targetPoint" />
            <Array as="points" />
            <mxPoint x="-15" y="-37" as="offset" />
          </mxGeometry>
        </mxCell>
        <mxCell id="5GutXgpYoX0E2_0ryTat-202" value="&lt;span style=&quot;font-size: 11px&quot;&gt;创建订单&lt;/span&gt;" style="text;html=1;align=center;verticalAlign=middle;resizable=0;points=[];labelBackgroundColor=#ffffff;" parent="5GutXgpYoX0E2_0ryTat-122" vertex="1" connectable="0">
          <mxGeometry relative="1" as="geometry">
            <mxPoint x="-61" y="-4" as="offset" />
          </mxGeometry>
        </mxCell>
        <mxCell id="5GutXgpYoX0E2_0ryTat-126" value="" style="edgeStyle=elbowEdgeStyle;elbow=vertical;dashed=0;verticalLabelPosition=top;verticalAlign=bottom;align=right;entryX=0.95;entryY=0.551;entryDx=0;entryDy=0;entryPerimeter=0;" parent="1" source="5GutXgpYoX0E2_0ryTat-116" target="5GutXgpYoX0E2_0ryTat-99" edge="1">
          <mxGeometry x="280" y="229.75887345679007" width="100" height="100" as="geometry">
            <mxPoint x="599.7839506172838" y="267" as="sourcePoint" />
            <mxPoint x="300" y="267" as="targetPoint" />
            <Array as="points" />
          </mxGeometry>
        </mxCell>
        <mxCell id="5GutXgpYoX0E2_0ryTat-201" value="&amp;nbsp;返回订单" style="text;html=1;align=center;verticalAlign=middle;resizable=0;points=[];labelBackgroundColor=#ffffff;" parent="5GutXgpYoX0E2_0ryTat-126" vertex="1" connectable="0">
          <mxGeometry relative="1" as="geometry">
            <mxPoint x="-10" y="1" as="offset" />
          </mxGeometry>
        </mxCell>
        <mxCell id="5GutXgpYoX0E2_0ryTat-135" value="" style="endArrow=none;dashed=1;html=1;entryX=0.581;entryY=1.02;entryDx=0;entryDy=0;entryPerimeter=0;exitX=0.307;exitY=1;exitDx=0;exitDy=0;exitPerimeter=0;" parent="1" source="5GutXgpYoX0E2_0ryTat-222" edge="1">
          <mxGeometry width="50" height="50" relative="1" as="geometry">
            <mxPoint x="521.9999999999999" y="388.4" as="sourcePoint" />
            <mxPoint x="522.1899999999999" y="99.99999999999989" as="targetPoint" />
          </mxGeometry>
        </mxCell>
        <mxCell id="5GutXgpYoX0E2_0ryTat-138" value="" style="endArrow=none;dashed=1;html=1;entryX=0.581;entryY=1.02;entryDx=0;entryDy=0;entryPerimeter=0;exitX=0.307;exitY=0.825;exitDx=0;exitDy=0;exitPerimeter=0;" parent="1" source="5GutXgpYoX0E2_0ryTat-154" edge="1">
          <mxGeometry width="50" height="50" relative="1" as="geometry">
            <mxPoint x="983" y="670" as="sourcePoint" />
            <mxPoint x="983.2" y="99.99999999999989" as="targetPoint" />
          </mxGeometry>
        </mxCell>
        <mxCell id="5GutXgpYoX0E2_0ryTat-143" value="" style="endArrow=none;dashed=1;html=1;entryX=0.438;entryY=1.06;entryDx=0;entryDy=0;entryPerimeter=0;exitX=0.159;exitY=0.98;exitDx=0;exitDy=0;exitPerimeter=0;" parent="1" source="5GutXgpYoX0E2_0ryTat-232" edge="1">
          <mxGeometry width="50" height="50" relative="1" as="geometry">
            <mxPoint x="287.06999999999994" y="391" as="sourcePoint" />
            <mxPoint x="289.99" y="101" as="targetPoint" />
          </mxGeometry>
        </mxCell>
        <mxCell id="5GutXgpYoX0E2_0ryTat-144" value="" style="endArrow=none;dashed=1;html=1;entryX=0.581;entryY=1.02;entryDx=0;entryDy=0;entryPerimeter=0;exitX=0.447;exitY=0.955;exitDx=0;exitDy=0;exitPerimeter=0;" parent="1" source="5GutXgpYoX0E2_0ryTat-90" edge="1">
          <mxGeometry width="50" height="50" relative="1" as="geometry">
            <mxPoint x="741.99" y="672" as="sourcePoint" />
            <mxPoint x="742.19" y="101.99999999999989" as="targetPoint" />
          </mxGeometry>
        </mxCell>
        <mxCell id="5GutXgpYoX0E2_0ryTat-146" value="" style="endArrow=none;dashed=1;html=1;entryX=0.5;entryY=1;entryDx=0;entryDy=0;exitX=0.307;exitY=0.825;exitDx=0;exitDy=0;exitPerimeter=0;" parent="1" target="5GutXgpYoX0E2_0ryTat-95" edge="1">
          <mxGeometry width="50" height="50" relative="1" as="geometry">
            <mxPoint x="1191.99" y="819" as="sourcePoint" />
            <mxPoint x="1192.19" y="248.9999999999999" as="targetPoint" />
          </mxGeometry>
        </mxCell>
        <mxCell id="5GutXgpYoX0E2_0ryTat-147" value="" style="fillColor=#80FF00;strokeColor=#660000" parent="1" vertex="1">
          <mxGeometry x="518" y="323" width="10" height="177" as="geometry" />
        </mxCell>
        <mxCell id="5GutXgpYoX0E2_0ryTat-149" value="" style="fillColor=#80FF00;strokeColor=#660000" parent="1" vertex="1">
          <mxGeometry x="1190" y="530" width="10" height="250" as="geometry" />
        </mxCell>
        <mxCell id="5GutXgpYoX0E2_0ryTat-152" value="" style="fillColor=#80FF00;strokeColor=#660000" parent="1" vertex="1">
          <mxGeometry x="737.5" y="630" width="10" height="80" as="geometry" />
        </mxCell>
        <mxCell id="5GutXgpYoX0E2_0ryTat-153" value="" style="fillColor=#80FF00;strokeColor=#660000" parent="1" vertex="1">
          <mxGeometry x="737.5" y="450" width="10" height="150" as="geometry" />
        </mxCell>
        <mxCell id="5GutXgpYoX0E2_0ryTat-175" value="" style="endArrow=classic;html=1;entryX=1;entryY=0.1;entryDx=0;entryDy=0;entryPerimeter=0;" parent="1" edge="1">
          <mxGeometry width="50" height="50" relative="1" as="geometry">
            <mxPoint x="290" y="271" as="sourcePoint" />
            <mxPoint x="140" y="271" as="targetPoint" />
          </mxGeometry>
        </mxCell>
        <mxCell id="5GutXgpYoX0E2_0ryTat-181" value="" style="endArrow=classic;html=1;exitX=1.1;exitY=0.2;exitDx=0;exitDy=0;exitPerimeter=0;" parent="1" source="5GutXgpYoX0E2_0ryTat-97" edge="1">
          <mxGeometry width="50" height="50" relative="1" as="geometry">
            <mxPoint x="150" y="359" as="sourcePoint" />
            <mxPoint x="520" y="357" as="targetPoint" />
          </mxGeometry>
        </mxCell>
        <mxCell id="5GutXgpYoX0E2_0ryTat-182" value="选择支付方式" style="text;html=1;align=center;verticalAlign=middle;resizable=0;points=[];labelBackgroundColor=#ffffff;" parent="5GutXgpYoX0E2_0ryTat-181" vertex="1" connectable="0">
          <mxGeometry x="-0.0114" relative="1" as="geometry">
            <mxPoint as="offset" />
          </mxGeometry>
        </mxCell>
        <mxCell id="5GutXgpYoX0E2_0ryTat-204" value="" style="endArrow=classic;html=1;entryX=0;entryY=0.5;entryDx=0;entryDy=0;" parent="1" target="5GutXgpYoX0E2_0ryTat-154" edge="1">
          <mxGeometry width="50" height="50" relative="1" as="geometry">
            <mxPoint x="530" y="383" as="sourcePoint" />
            <mxPoint x="530" y="367" as="targetPoint" />
          </mxGeometry>
        </mxCell>
        <mxCell id="5GutXgpYoX0E2_0ryTat-205" value="订单号、支付方式" style="text;html=1;align=center;verticalAlign=middle;resizable=0;points=[];labelBackgroundColor=#ffffff;" parent="5GutXgpYoX0E2_0ryTat-204" vertex="1" connectable="0">
          <mxGeometry x="-0.0114" relative="1" as="geometry">
            <mxPoint as="offset" />
          </mxGeometry>
        </mxCell>
        <mxCell id="5GutXgpYoX0E2_0ryTat-154" value="" style="fillColor=#80FF00;strokeColor=#660000" parent="1" vertex="1">
          <mxGeometry x="977.5" y="336.5" width="10" height="93.5" as="geometry" />
        </mxCell>
        <mxCell id="5GutXgpYoX0E2_0ryTat-206" value="" style="endArrow=none;dashed=1;html=1;entryX=0.581;entryY=1.02;entryDx=0;entryDy=0;entryPerimeter=0;exitX=0.307;exitY=0.825;exitDx=0;exitDy=0;exitPerimeter=0;" parent="1" source="5GutXgpYoX0E2_0ryTat-151" target="5GutXgpYoX0E2_0ryTat-154" edge="1">
          <mxGeometry width="50" height="50" relative="1" as="geometry">
            <mxPoint x="983" y="670" as="sourcePoint" />
            <mxPoint x="983.1999999999998" y="99.99999999999989" as="targetPoint" />
          </mxGeometry>
        </mxCell>
        <mxCell id="5GutXgpYoX0E2_0ryTat-207" value="" style="edgeStyle=elbowEdgeStyle;elbow=vertical;dashed=0;verticalLabelPosition=top;verticalAlign=bottom;align=right;" parent="1" edge="1">
          <mxGeometry x="280.5" y="405.75887345679007" width="100" height="100" as="geometry">
            <mxPoint x="978" y="410" as="sourcePoint" />
            <mxPoint x="530" y="410" as="targetPoint" />
            <Array as="points" />
          </mxGeometry>
        </mxCell>
        <mxCell id="5GutXgpYoX0E2_0ryTat-208" value="&amp;nbsp;返回支付单" style="text;html=1;align=center;verticalAlign=middle;resizable=0;points=[];labelBackgroundColor=#ffffff;" parent="5GutXgpYoX0E2_0ryTat-207" vertex="1" connectable="0">
          <mxGeometry relative="1" as="geometry">
            <mxPoint x="-10" y="1" as="offset" />
          </mxGeometry>
        </mxCell>
        <mxCell id="5GutXgpYoX0E2_0ryTat-210" value="" style="endArrow=classic;html=1;exitX=1.1;exitY=0.2;exitDx=0;exitDy=0;exitPerimeter=0;entryX=-0.05;entryY=0.085;entryDx=0;entryDy=0;entryPerimeter=0;" parent="1" target="5GutXgpYoX0E2_0ryTat-153" edge="1">
          <mxGeometry width="50" height="50" relative="1" as="geometry">
            <mxPoint x="530" y="460" as="sourcePoint" />
            <mxPoint x="720" y="460" as="targetPoint" />
          </mxGeometry>
        </mxCell>
        <mxCell id="5GutXgpYoX0E2_0ryTat-211" value="支付单、支付方式" style="text;html=1;align=center;verticalAlign=middle;resizable=0;points=[];labelBackgroundColor=#ffffff;" parent="5GutXgpYoX0E2_0ryTat-210" vertex="1" connectable="0">
          <mxGeometry x="-0.0114" relative="1" as="geometry">
            <mxPoint as="offset" />
          </mxGeometry>
        </mxCell>
        <mxCell id="5GutXgpYoX0E2_0ryTat-212" value="" style="edgeStyle=elbowEdgeStyle;elbow=vertical;dashed=0;verticalLabelPosition=top;verticalAlign=bottom;align=right;" parent="1" edge="1">
          <mxGeometry x="278" y="695.7588734567901" width="100" height="100" as="geometry">
            <mxPoint x="730" y="700" as="sourcePoint" />
            <mxPoint x="527.5" y="700" as="targetPoint" />
            <Array as="points" />
          </mxGeometry>
        </mxCell>
        <mxCell id="5GutXgpYoX0E2_0ryTat-213" value="&amp;nbsp;回调" style="text;html=1;align=center;verticalAlign=middle;resizable=0;points=[];labelBackgroundColor=#ffffff;" parent="5GutXgpYoX0E2_0ryTat-212" vertex="1" connectable="0">
          <mxGeometry relative="1" as="geometry">
            <mxPoint x="-10" y="1" as="offset" />
          </mxGeometry>
        </mxCell>
        <mxCell id="5GutXgpYoX0E2_0ryTat-215" value="" style="endArrow=classic;html=1;" parent="1" edge="1">
          <mxGeometry width="50" height="50" relative="1" as="geometry">
            <mxPoint x="747.5" y="490" as="sourcePoint" />
            <mxPoint x="980" y="490" as="targetPoint" />
          </mxGeometry>
        </mxCell>
        <mxCell id="5GutXgpYoX0E2_0ryTat-216" value="支付单号" style="text;html=1;align=center;verticalAlign=middle;resizable=0;points=[];labelBackgroundColor=#ffffff;" parent="5GutXgpYoX0E2_0ryTat-215" vertex="1" connectable="0">
          <mxGeometry x="-0.0114" relative="1" as="geometry">
            <mxPoint as="offset" />
          </mxGeometry>
        </mxCell>
        <mxCell id="5GutXgpYoX0E2_0ryTat-151" value="" style="fillColor=#80FF00;strokeColor=#660000" parent="1" vertex="1">
          <mxGeometry x="977.5" y="470" width="10" height="80" as="geometry" />
        </mxCell>
        <mxCell id="5GutXgpYoX0E2_0ryTat-217" value="" style="endArrow=none;dashed=1;html=1;entryX=0.581;entryY=1.02;entryDx=0;entryDy=0;entryPerimeter=0;exitX=0.601;exitY=0.955;exitDx=0;exitDy=0;exitPerimeter=0;" parent="1" source="5GutXgpYoX0E2_0ryTat-237" target="5GutXgpYoX0E2_0ryTat-151" edge="1">
          <mxGeometry width="50" height="50" relative="1" as="geometry">
            <mxPoint x="983" y="670" as="sourcePoint" />
            <mxPoint x="983.31" y="431.8699999999999" as="targetPoint" />
          </mxGeometry>
        </mxCell>
        <mxCell id="5GutXgpYoX0E2_0ryTat-218" value="" style="endArrow=classic;html=1;entryX=0;entryY=0.5;entryDx=0;entryDy=0;" parent="1" edge="1">
          <mxGeometry width="50" height="50" relative="1" as="geometry">
            <mxPoint x="747.5" y="564" as="sourcePoint" />
            <mxPoint x="1195" y="564.25" as="targetPoint" />
          </mxGeometry>
        </mxCell>
        <mxCell id="5GutXgpYoX0E2_0ryTat-219" value="第三封组装数据" style="text;html=1;align=center;verticalAlign=middle;resizable=0;points=[];labelBackgroundColor=#ffffff;" parent="5GutXgpYoX0E2_0ryTat-218" vertex="1" connectable="0">
          <mxGeometry x="-0.0114" relative="1" as="geometry">
            <mxPoint as="offset" />
          </mxGeometry>
        </mxCell>
        <mxCell id="5GutXgpYoX0E2_0ryTat-220" value="" style="edgeStyle=elbowEdgeStyle;elbow=horizontal;dashed=0;verticalLabelPosition=top;verticalAlign=bottom;align=right;" parent="1" edge="1">
          <mxGeometry x="498" y="585.7588734567901" width="100" height="100" as="geometry">
            <mxPoint x="1195.5" y="590" as="sourcePoint" />
            <mxPoint x="747.5" y="590" as="targetPoint" />
            <Array as="points" />
          </mxGeometry>
        </mxCell>
        <mxCell id="5GutXgpYoX0E2_0ryTat-221" value="支付结果" style="text;html=1;align=center;verticalAlign=middle;resizable=0;points=[];labelBackgroundColor=#ffffff;" parent="5GutXgpYoX0E2_0ryTat-220" vertex="1" connectable="0">
          <mxGeometry relative="1" as="geometry">
            <mxPoint x="-10" y="1" as="offset" />
          </mxGeometry>
        </mxCell>
        <mxCell id="5GutXgpYoX0E2_0ryTat-224" value="" style="edgeStyle=elbowEdgeStyle;elbow=vertical;dashed=1;verticalLabelPosition=bottom;verticalAlign=top" parent="1" edge="1">
          <mxGeometry x="925" y="667.3379320987654" width="100" height="100" as="geometry">
            <mxPoint x="1190" y="660" as="sourcePoint" />
            <mxPoint x="747.5" y="659.9961111111111" as="targetPoint" />
            <Array as="points" />
          </mxGeometry>
        </mxCell>
        <mxCell id="5GutXgpYoX0E2_0ryTat-225" value="异步通知" style="text;html=1;align=center;verticalAlign=middle;resizable=0;points=[];labelBackgroundColor=#ffffff;" parent="5GutXgpYoX0E2_0ryTat-224" vertex="1" connectable="0">
          <mxGeometry relative="1" as="geometry">
            <mxPoint x="-21" y="2" as="offset" />
          </mxGeometry>
        </mxCell>
        <mxCell id="5GutXgpYoX0E2_0ryTat-228" value="" style="edgeStyle=none;verticalLabelPosition=top;verticalAlign=bottom;dashed=1;entryX=0.732;entryY=0.817;entryDx=0;entryDy=0;entryPerimeter=0;" parent="1" target="5GutXgpYoX0E2_0ryTat-90" edge="1">
          <mxGeometry x="780.4552469135803" y="592.7055092592593" width="100" height="100" as="geometry">
            <mxPoint x="747.5" y="679.9956327160494" as="sourcePoint" />
            <mxPoint x="857.5" y="679.9956327160494" as="targetPoint" />
          </mxGeometry>
        </mxCell>
        <mxCell id="5GutXgpYoX0E2_0ryTat-229" value="查询支付结果" style="text;html=1;align=center;verticalAlign=middle;resizable=0;points=[];labelBackgroundColor=#ffffff;" parent="5GutXgpYoX0E2_0ryTat-228" vertex="1" connectable="0">
          <mxGeometry relative="1" as="geometry">
            <mxPoint x="-15" y="-1" as="offset" />
          </mxGeometry>
        </mxCell>
        <mxCell id="5GutXgpYoX0E2_0ryTat-222" value="" style="fillColor=#80FF00;strokeColor=#660000" parent="1" vertex="1">
          <mxGeometry x="517.5" y="660" width="10" height="110" as="geometry" />
        </mxCell>
        <mxCell id="5GutXgpYoX0E2_0ryTat-233" value="" style="endArrow=none;dashed=1;html=1;entryX=0.581;entryY=1.02;entryDx=0;entryDy=0;entryPerimeter=0;exitX=0.307;exitY=1;exitDx=0;exitDy=0;exitPerimeter=0;" parent="1" source="5GutXgpYoX0E2_0ryTat-90" target="5GutXgpYoX0E2_0ryTat-222" edge="1">
          <mxGeometry width="50" height="50" relative="1" as="geometry">
            <mxPoint x="521.99" y="826" as="sourcePoint" />
            <mxPoint x="522.19" y="99.99999999999989" as="targetPoint" />
          </mxGeometry>
        </mxCell>
        <mxCell id="5GutXgpYoX0E2_0ryTat-234" value="" style="edgeStyle=elbowEdgeStyle;elbow=horizontal;dashed=0;verticalLabelPosition=top;verticalAlign=bottom;align=right;" parent="1" edge="1">
          <mxGeometry x="498" y="520.2588734567901" width="100" height="100" as="geometry">
            <mxPoint x="980" y="525" as="sourcePoint" />
            <mxPoint x="747.5" y="524.5" as="targetPoint" />
            <Array as="points" />
          </mxGeometry>
        </mxCell>
        <mxCell id="5GutXgpYoX0E2_0ryTat-235" value="支付单信息" style="text;html=1;align=center;verticalAlign=middle;resizable=0;points=[];labelBackgroundColor=#ffffff;" parent="5GutXgpYoX0E2_0ryTat-234" vertex="1" connectable="0">
          <mxGeometry relative="1" as="geometry">
            <mxPoint x="-10" y="1" as="offset" />
          </mxGeometry>
        </mxCell>
        <mxCell id="5GutXgpYoX0E2_0ryTat-237" value="" style="fillColor=#80FF00;strokeColor=#660000" parent="1" vertex="1">
          <mxGeometry x="977.5" y="700" width="10" height="80" as="geometry" />
        </mxCell>
        <mxCell id="5GutXgpYoX0E2_0ryTat-239" value="" style="edgeStyle=none;verticalLabelPosition=top;verticalAlign=bottom;dashed=1;entryX=0.732;entryY=0.817;entryDx=0;entryDy=0;entryPerimeter=0;" parent="1" edge="1">
          <mxGeometry x="568.7152469135802" y="643.1055092592593" width="100" height="100" as="geometry">
            <mxPoint x="535.76" y="730.3956327160494" as="sourcePoint" />
            <mxPoint x="977.4999999999998" y="729.9999999999999" as="targetPoint" />
          </mxGeometry>
        </mxCell>
        <mxCell id="5GutXgpYoX0E2_0ryTat-240" value="同步、异步更新支付结果" style="text;html=1;align=center;verticalAlign=middle;resizable=0;points=[];labelBackgroundColor=#ffffff;" parent="5GutXgpYoX0E2_0ryTat-239" vertex="1" connectable="0">
          <mxGeometry relative="1" as="geometry">
            <mxPoint x="-15" y="-1" as="offset" />
          </mxGeometry>
        </mxCell>
        <mxCell id="5GutXgpYoX0E2_0ryTat-232" value="" style="fillColor=#80FF00;strokeColor=#660000" parent="1" vertex="1">
          <mxGeometry x="287.5" y="690" width="10" height="80" as="geometry" />
        </mxCell>
        <mxCell id="5GutXgpYoX0E2_0ryTat-243" value="" style="edgeStyle=elbowEdgeStyle;elbow=vertical;dashed=0;verticalLabelPosition=top;verticalAlign=bottom;align=right;entryX=0;entryY=0.75;entryDx=0;entryDy=0;" parent="1" target="5GutXgpYoX0E2_0ryTat-232" edge="1">
          <mxGeometry x="65.5" y="745.7588734567901" width="100" height="100" as="geometry">
            <mxPoint x="517.5" y="750" as="sourcePoint" />
            <mxPoint x="315" y="750" as="targetPoint" />
            <Array as="points" />
          </mxGeometry>
        </mxCell>
        <mxCell id="5GutXgpYoX0E2_0ryTat-244" value="支付结果" style="text;html=1;align=center;verticalAlign=middle;resizable=0;points=[];labelBackgroundColor=#ffffff;" parent="5GutXgpYoX0E2_0ryTat-243" vertex="1" connectable="0">
          <mxGeometry relative="1" as="geometry">
            <mxPoint x="-10" y="1" as="offset" />
          </mxGeometry>
        </mxCell>
        <mxCell id="5GutXgpYoX0E2_0ryTat-245" value="" style="endArrow=none;dashed=1;html=1;entryX=0.581;entryY=1.02;entryDx=0;entryDy=0;entryPerimeter=0;exitX=0.307;exitY=1;exitDx=0;exitDy=0;exitPerimeter=0;" parent="1" edge="1">
          <mxGeometry width="50" height="50" relative="1" as="geometry">
            <mxPoint x="291.84000000000003" y="823.8" as="sourcePoint" />
            <mxPoint x="293.15999999999997" y="770" as="targetPoint" />
          </mxGeometry>
        </mxCell>
        <mxCell id="5GutXgpYoX0E2_0ryTat-246" value="" style="endArrow=none;dashed=1;html=1;entryX=0.581;entryY=1.02;entryDx=0;entryDy=0;entryPerimeter=0;" parent="1" edge="1">
          <mxGeometry width="50" height="50" relative="1" as="geometry">
            <mxPoint x="983" y="810" as="sourcePoint" />
            <mxPoint x="983.16" y="782.2" as="targetPoint" />
          </mxGeometry>
        </mxCell>
        <mxCell id="5GutXgpYoX0E2_0ryTat-99" value="" style="fillColor=#80FF00;strokeColor=#660000" parent="1" vertex="1">
          <mxGeometry x="284" y="166" width="10" height="124" as="geometry" />
        </mxCell>
      </root>
    </mxGraphModel>
  </diagram>
</mxfile>
